<?xml version="1.0" encoding="utf-8"?>
<!-- Generator: Adobe Illustrator 24.3.0, SVG Export Plug-In . SVG Version: 6.00 Build 0)  -->
<svg version="1.1" id="Layer_1" xmlns="http://www.w3.org/2000/svg" xmlns:xlink="http://www.w3.org/1999/xlink" x="0px" y="0px"
	 viewBox="0 0 385.3 64.2" style="enable-background:new 0 0 385.3 64.2;" xml:space="preserve">
<style type="text/css">
	.st0{fill:#3F4A9F;}
	.st1{fill:#5E5E5E;}
	.st2{fill:#0E0F17;}
</style>
<g>
	<path class="st0" d="M235.8,50.6c-11.3,0.8-5.8-19.5-7-25.6h-4.1v-2.3h4.1v-5.2l2.9-3.5h2.3v8.7h7V25h-7c1.2,5.6-4.5,29.5,8.4,22.1
		l0.6,1.2C241,49.8,239,50.7,235.8,50.6z M202.8,34.9H215C216.1,20.8,202,21.9,202.8,34.9z M209.5,50.6c-13.5,0.5-16-19.8-6.8-26.6
		c9.4-6.2,20.1,2.5,17.8,13.2h-17.7c-1.2,10.2,10.6,15.3,16,6.4l1.2,0.9C217.7,48.5,214,50.7,209.5,50.6z M192.9,50.6
		c-6.8,0.7-11.7-9.7-15.4-14V50h-5.2V18.6c0.1-3.8-1.1-6.3-5.2-5.8v-1.2c3,0.4,9-1.3,10,2.6c0.9,2.6,0.3,18.5,0.5,21.6
		c4.2-4.7,8.8-14.8,16.6-13.1v1.5c-4.9-0.6-9.2,7.9-11.9,10.8c3.5,3.6,8.4,13.3,13.7,14V50C195.1,50.4,193.9,50.6,192.9,50.6z
		 M149.2,50c-1.2-4.2,3.5-28.2-4.7-26.2v-1.2c3,0.2,8.5-1,9.6,2.6c3-3.4,10.7-5.2,12.8,0.3l-2.3,1.7c-2.6-2.8-8.2-2.1-10.2,1.2
		c0-1.2,0,21.5,0,21.6H149.2z M129.4,48c2.7,0.1,4.2-1.6,5.5-3.5v-7.9C125.6,34.6,118.2,46,129.4,48z M126.8,50.6
		c-6.7,0.6-11.5-8.3-6.4-13.1c3.8-3,9.7-3.2,14.6-3.2c2-9.2-9.9-14.4-12.5-5h-2.6c-1.3-8.6,12.3-8.9,17.2-5.1
		c5.2,4.6,2.5,19.4,3.1,25.8h-2.9l-2-2.6h-0.3C133.1,49.6,130.2,50.7,126.8,50.6z M115.3,52.7c-17,1.6-9-25.4-10.8-35L90,50h-1.2
		L73.7,17.1V50h-2.3V11.6h5.5l14,30.3l13.7-30.3h5.2c1.4,6.5-4.3,39.6,5.5,39.9V52.7z"/>
	<path class="st1" d="M361.6,34.8h9.9C372.6,21.1,360.4,22.3,361.6,34.8z M367.1,50.6c-14.1,0.9-18.2-20.6-7.1-26.9
		c9.4-5.4,22,2.6,19.1,13.7h-17.5c-1.5,11.1,9.5,14,14.7,5.8l1.8,1.3C375.8,48.2,372,50.8,367.1,50.6z M338.3,50.6
		c-14.3,1.2-18.9-19.6-7.8-26.6c7.1-3.9,20.9-3.3,18.3,8.2h-1.7c0.1-6.1-6.7-9.7-11.5-6.3c-9,9,0.3,32.5,12.3,17.2l1.8,1.3
		C347.3,48.3,343.4,50.8,338.3,50.6z M306.3,47.7c5.8,0.1,5-7.4,5-11.1C303.3,34.7,298.4,45.9,306.3,47.7z M304.6,50.6
		c-18.1-1.9-9.9-19.5,6.7-16.6c1.9-8.7-9.2-13.8-11.4-4.1h-3.2c-1.5-9.9,13.9-9.6,19-4.8c5.2,4.6,2.5,18.8,3.1,24.9h-5l-2-2.6h-0.3
		C310.2,49.5,307.4,50.7,304.6,50.6z M281.3,50V19.2c0-3.5-0.7-6.2-4.7-5.8v-1.7c3.3,0.4,10.8-1.6,11.8,3c1,2.1,0.3,32.5,0.5,35.4
		H281.3z M256.6,32.2c15.3,3.6,15.3-22.4,0-17.8V32.2z M249.1,50V19.2c0-3.5-0.7-6.2-4.7-5.8v-1.7c2.9,0.1,17.1-0.2,19.6,0.2
		c20.8,3.2,13.6,26.2-7.4,22.7V50H249.1z"/>
	<path class="st2" d="M17,37.2c-1.5-1.1-0.6-9.7-0.8-11.2c-0.3-1.7,2.7-2.7,1.5-4.3c-1.1-0.3-7.1-8.9-8.5-6.9
		c-0.4,0.6-3.1,2.6-3,3.5c0.5,2.1,6.2,5.3,6.1,7.8c0,0,0,9.2,0,9.2C11.3,40.5,1,41.7,9.9,46.8c0.6,0.5,7.3-7.1,7.7-7.3
		C18.4,38.7,17.6,37.7,17,37.2z"/>
	<path class="st2" d="M35.9,43c-1.1,1.5-9.6,0.6-11.2,0.8c-1.1,0-2-0.7-2.6-1.5c-0.4-0.4-1.2-0.5-1.6,0c-0.2,0.5-7.7,7.2-7.2,7.8
		c5.1,8.9,6.2-1.4,11.5-2.3c0,0,9.2,0,9.2,0c5.3,1,6.4,11.2,11.5,2.3c0.5-0.6-7-7.3-7.2-7.8C37.4,41.6,36.5,42.4,35.9,43z"/>
	<path class="st2" d="M41.9,24c1.5,1.1,0.6,9.7,0.8,11.2c0.3,1.7-2.7,2.7-1.5,4.3c1.1,0.3,7.1,8.9,8.5,6.9c0.4-0.6,3.1-2.6,3-3.5
		c-0.5-2.1-6.2-5.3-6.1-7.8c0,0,0-9.2,0-9.2c0.9-5.5,10.7-5.9,2.7-11.5c-1.1-1-7.4,6.8-8.2,7.2C40.4,22.5,41.2,23.5,41.9,24z"/>
	<path class="st2" d="M22.9,18.2c1.1-1.5,9.6-0.6,11.2-0.8c1.3,0,2.1,1.1,3,1.7c1.2,0.7,8.2-7.1,8.5-8c-4.3-7.2-5.4-1.9-9.5,1.5
		c-1.1,1.5-9.6,0.6-11.2,0.8c-2.8,0.4-5.9-7.3-8.6-5.8c-0.5,0.9-4.1,3-2.6,4.3C15.2,12.6,21.2,21.9,22.9,18.2z"/>
</g>
</svg>
